<mxfile host="app.diagrams.net" agent="Mozilla/5.0 (Windows NT 10.0; Win64; x64) AppleWebKit/537.36 (KHTML, like Gecko) Chrome/130.0.0.0 Safari/537.36" version="24.8.4">
  <diagram name="Page-1" id="HYa8TsJzX5coxKYPLVIB">
    <mxGraphModel grid="0" page="0" gridSize="10" guides="1" tooltips="1" connect="1" arrows="1" fold="1" pageScale="1" pageWidth="827" pageHeight="1169" math="0" shadow="0">
      <root>
        <mxCell id="0" />
        <mxCell id="1" parent="0" />
        <mxCell id="LyMKi4bHt5XV_cSvp2gQ-8" style="edgeStyle=none;curved=0;rounded=0;orthogonalLoop=1;jettySize=auto;html=1;fontSize=12;startSize=8;endSize=8;" edge="1" parent="1">
          <mxGeometry relative="1" as="geometry">
            <mxPoint x="-115" y="50" as="sourcePoint" />
            <mxPoint x="236" y="50" as="targetPoint" />
          </mxGeometry>
        </mxCell>
        <mxCell id="LyMKi4bHt5XV_cSvp2gQ-1" value="Admin" style="shape=umlLifeline;perimeter=lifelinePerimeter;whiteSpace=wrap;html=1;container=1;dropTarget=0;collapsible=0;recursiveResize=0;outlineConnect=0;portConstraint=eastwest;newEdgeStyle={&quot;curved&quot;:0,&quot;rounded&quot;:0};" vertex="1" parent="1">
          <mxGeometry x="-169" y="-23" width="100" height="491" as="geometry" />
        </mxCell>
        <mxCell id="LyMKi4bHt5XV_cSvp2gQ-2" value="" style="html=1;points=[[0,0,0,0,5],[0,1,0,0,-5],[1,0,0,0,5],[1,1,0,0,-5]];perimeter=orthogonalPerimeter;outlineConnect=0;targetShapes=umlLifeline;portConstraint=eastwest;newEdgeStyle={&quot;curved&quot;:0,&quot;rounded&quot;:0};" vertex="1" parent="LyMKi4bHt5XV_cSvp2gQ-1">
          <mxGeometry x="45" y="140" width="10" height="55" as="geometry" />
        </mxCell>
        <mxCell id="LyMKi4bHt5XV_cSvp2gQ-10" style="edgeStyle=none;curved=0;rounded=0;orthogonalLoop=1;jettySize=auto;html=1;fontSize=12;startSize=8;endSize=8;" edge="1" parent="1">
          <mxGeometry relative="1" as="geometry">
            <mxPoint x="229" y="111" as="sourcePoint" />
            <mxPoint x="-122" y="111" as="targetPoint" />
          </mxGeometry>
        </mxCell>
        <mxCell id="LyMKi4bHt5XV_cSvp2gQ-19" style="edgeStyle=none;curved=0;rounded=0;orthogonalLoop=1;jettySize=auto;html=1;fontSize=12;startSize=8;endSize=8;" edge="1" parent="1">
          <mxGeometry relative="1" as="geometry">
            <mxPoint x="233" y="376" as="sourcePoint" />
            <mxPoint x="-118" y="376" as="targetPoint" />
          </mxGeometry>
        </mxCell>
        <mxCell id="LyMKi4bHt5XV_cSvp2gQ-3" value="Hệ thống" style="shape=umlLifeline;perimeter=lifelinePerimeter;whiteSpace=wrap;html=1;container=1;dropTarget=0;collapsible=0;recursiveResize=0;outlineConnect=0;portConstraint=eastwest;newEdgeStyle={&quot;curved&quot;:0,&quot;rounded&quot;:0};" vertex="1" parent="1">
          <mxGeometry x="182" y="-23" width="100" height="485" as="geometry" />
        </mxCell>
        <mxCell id="LyMKi4bHt5XV_cSvp2gQ-4" value="" style="html=1;points=[[0,0,0,0,5],[0,1,0,0,-5],[1,0,0,0,5],[1,1,0,0,-5]];perimeter=orthogonalPerimeter;outlineConnect=0;targetShapes=umlLifeline;portConstraint=eastwest;newEdgeStyle={&quot;curved&quot;:0,&quot;rounded&quot;:0};" vertex="1" parent="LyMKi4bHt5XV_cSvp2gQ-3">
          <mxGeometry x="45" y="197" width="10" height="55" as="geometry" />
        </mxCell>
        <mxCell id="LyMKi4bHt5XV_cSvp2gQ-5" value="" style="html=1;points=[[0,0,0,0,5],[0,1,0,0,-5],[1,0,0,0,5],[1,1,0,0,-5]];perimeter=orthogonalPerimeter;outlineConnect=0;targetShapes=umlLifeline;portConstraint=eastwest;newEdgeStyle={&quot;curved&quot;:0,&quot;rounded&quot;:0};" vertex="1" parent="LyMKi4bHt5XV_cSvp2gQ-3">
          <mxGeometry x="45" y="78" width="10" height="55" as="geometry" />
        </mxCell>
        <mxCell id="LyMKi4bHt5XV_cSvp2gQ-6" value="Cơ sở dữ liệu" style="shape=umlLifeline;perimeter=lifelinePerimeter;whiteSpace=wrap;html=1;container=1;dropTarget=0;collapsible=0;recursiveResize=0;outlineConnect=0;portConstraint=eastwest;newEdgeStyle={&quot;curved&quot;:0,&quot;rounded&quot;:0};" vertex="1" parent="1">
          <mxGeometry x="590" y="-31" width="92" height="491" as="geometry" />
        </mxCell>
        <mxCell id="LyMKi4bHt5XV_cSvp2gQ-7" value="" style="html=1;points=[[0,0,0,0,5],[0,1,0,0,-5],[1,0,0,0,5],[1,1,0,0,-5]];perimeter=orthogonalPerimeter;outlineConnect=0;targetShapes=umlLifeline;portConstraint=eastwest;newEdgeStyle={&quot;curved&quot;:0,&quot;rounded&quot;:0};" vertex="1" parent="LyMKi4bHt5XV_cSvp2gQ-6">
          <mxGeometry x="41" y="268.5" width="10" height="55" as="geometry" />
        </mxCell>
        <mxCell id="LyMKi4bHt5XV_cSvp2gQ-9" value=" Gửi yêu cầu (Tạo / Xem / Cập nhật / Xóa)" style="text;strokeColor=none;fillColor=none;html=1;align=center;verticalAlign=middle;whiteSpace=wrap;rounded=0;fontSize=16;" vertex="1" parent="1">
          <mxGeometry x="-101" y="25" width="305" height="30" as="geometry" />
        </mxCell>
        <mxCell id="LyMKi4bHt5XV_cSvp2gQ-11" value="&amp;nbsp;Yêu cầu (Tạo / Xem / Cập nhật / Xóa)" style="text;strokeColor=none;fillColor=none;html=1;align=center;verticalAlign=middle;whiteSpace=wrap;rounded=0;fontSize=16;" vertex="1" parent="1">
          <mxGeometry x="-95" y="85" width="305" height="30" as="geometry" />
        </mxCell>
        <mxCell id="LyMKi4bHt5XV_cSvp2gQ-12" style="edgeStyle=none;curved=0;rounded=0;orthogonalLoop=1;jettySize=auto;html=1;fontSize=12;startSize=8;endSize=8;" edge="1" parent="1">
          <mxGeometry relative="1" as="geometry">
            <mxPoint x="-112" y="172" as="sourcePoint" />
            <mxPoint x="233.5" y="172" as="targetPoint" />
          </mxGeometry>
        </mxCell>
        <mxCell id="LyMKi4bHt5XV_cSvp2gQ-13" value="&amp;nbsp; Tạo / Xem / Cập nhật / Xóa" style="text;strokeColor=none;fillColor=none;html=1;align=center;verticalAlign=middle;whiteSpace=wrap;rounded=0;fontSize=16;" vertex="1" parent="1">
          <mxGeometry x="-101" y="145" width="305" height="30" as="geometry" />
        </mxCell>
        <mxCell id="LyMKi4bHt5XV_cSvp2gQ-14" style="edgeStyle=none;curved=0;rounded=0;orthogonalLoop=1;jettySize=auto;html=1;fontSize=12;startSize=8;endSize=8;" edge="1" parent="1">
          <mxGeometry relative="1" as="geometry">
            <mxPoint x="237" y="232" as="sourcePoint" />
            <mxPoint x="635.5" y="232" as="targetPoint" />
          </mxGeometry>
        </mxCell>
        <mxCell id="LyMKi4bHt5XV_cSvp2gQ-15" value="Truy vấn / Lưu / Cập nhật / Xóa thông tin người dùng" style="text;strokeColor=none;fillColor=none;html=1;align=center;verticalAlign=middle;whiteSpace=wrap;rounded=0;fontSize=16;" vertex="1" parent="1">
          <mxGeometry x="228" y="207.5" width="408" height="30" as="geometry" />
        </mxCell>
        <mxCell id="LyMKi4bHt5XV_cSvp2gQ-16" style="edgeStyle=none;curved=0;rounded=0;orthogonalLoop=1;jettySize=auto;html=1;fontSize=12;startSize=8;endSize=8;" edge="1" parent="1">
          <mxGeometry relative="1" as="geometry">
            <mxPoint x="631.75" y="293" as="sourcePoint" />
            <mxPoint x="232.25" y="293" as="targetPoint" />
          </mxGeometry>
        </mxCell>
        <mxCell id="LyMKi4bHt5XV_cSvp2gQ-17" value="Trả về kết quả" style="text;strokeColor=none;fillColor=none;html=1;align=center;verticalAlign=middle;whiteSpace=wrap;rounded=0;fontSize=17;" vertex="1" parent="1">
          <mxGeometry x="311" y="272" width="262" height="28" as="geometry" />
        </mxCell>
        <mxCell id="LyMKi4bHt5XV_cSvp2gQ-20" value="Trả về thông báo" style="text;strokeColor=none;fillColor=none;html=1;align=center;verticalAlign=middle;whiteSpace=wrap;rounded=0;fontSize=17;" vertex="1" parent="1">
          <mxGeometry x="-73.5" y="351" width="262" height="28" as="geometry" />
        </mxCell>
      </root>
    </mxGraphModel>
  </diagram>
</mxfile>
